<?xml version="1.0" encoding="utf-8"?>
<!-- Generator: Adobe Illustrator 23.0.0, SVG Export Plug-In . SVG Version: 6.00 Build 0)  -->
<svg version="1.1"
	 id="svg2" xmlns:cc="http://creativecommons.org/ns#" xmlns:dc="http://purl.org/dc/elements/1.1/" xmlns:rdf="http://www.w3.org/1999/02/22-rdf-syntax-ns#"
	 xmlns="http://www.w3.org/2000/svg" xmlns:xlink="http://www.w3.org/1999/xlink" x="0px" y="0px" viewBox="0 0 991 624.5"
	 style="enable-background:new 0 0 991 624.5;" xml:space="preserve">
<style type="text/css">
	.st0{fill:none;stroke:#000000;stroke-width:2;stroke-miterlimit:10;}
</style>
<g id="g5975" transform="matrix(1.5258 0 0 1.5258 -301.33 -590.54)">
	<g>
		<path id="path12" class="st0" d="M328.6,423.3c-6.5,11.5-12.1,62.6,0,65.8c12.1,3.1,126.7-2.1,126.7-2.1l105.3-32.4
			c0,0-16.8-34.4-5.6-48C555,406.6,335.1,411.8,328.6,423.3L328.6,423.3z"/>
		<path id="path14" class="st0" d="M457,502.2c0,0-187.8,8-194.9,17.8c-7.2,9.8-11.9,33.9,3.2,37.4c15.1,3.6,187.8-0.9,195.7-5.3
			c8-4.5,132.1-40.1,132.1-40.1s-18.3-23.2-9.5-38.3C592.3,458.5,457,502.2,457,502.2L457,502.2z"/>
		<path id="path16" class="st0" d="M249.3,581.5c0,0,22.3,40.1-7.9,57.9c0,0,203.7,19.6,214,8.9c10.3-10.7,46.1-65.1-2.4-72.2
			C404.5,569,259.7,572.6,249.3,581.5L249.3,581.5z"/>
		<path id="path18" class="st0" d="M471.3,678.7c0,0-217.2-16.9-233.1-2.7c-15.9,14.3-17.5,55.3,0.8,61.5
			c18.3,6.2,233.1,33,233.1,33l98.7-47.2c0,0-31-49.9,2.4-91.8L471.3,678.7L471.3,678.7z"/>
		<path id="path20" class="st0" d="M476.9,661.7c0,0-224.4-13.4-241.9-10.7c-17.5,2.7-64.6,52.8-7.7,104.4
			c1.6,1.5,243.1,51.6,247.7,36.2c3.2-10.7,6.6-25.7-0.5-28.3c-7.2-2.7-233.9-31.2-233.9-31.2s-26.3-48.1,6.4-55.3
			c28.2-6.2,218.8,15.2,225.2,8.9C478.5,679.5,481.7,659.9,476.9,661.7L476.9,661.7z"/>
		<path id="path22" class="st0" d="M476.9,661.7c0,0,0.2-0.2,0.8-0.2c0.6,0,1.3,0.8,1.5,1.9c0.5,2.3,0.3,5.7-0.7,10.1
			c-0.5,2.1-1.2,4.5-2.4,7c-0.6,1.2-1.2,2.5-2,3.7c-0.4,0.6-0.9,1.2-1.4,1.7c-0.2,0.3-0.7,0.6-1.1,0.7l-1.1,0.3
			c-2.9,0.5-6,0.5-9.4,0.6c-3.3,0-6.9,0-10.6-0.1c-30-0.9-73.3-4.5-126.8-7.9c-13.4-0.8-27.4-1.6-42-2.1c-7.3-0.2-14.8-0.4-22.3-0.2
			c-3.8,0.1-7.6,0.3-11.3,0.9c-3.7,0.7-7.3,2-10.2,4.5c-2.9,2.5-4.8,6.2-5.6,10.3c-0.7,4.2-0.5,8.6,0.3,12.9c0.8,4.3,2,8.7,3.6,12.9
			c0.8,2.1,1.6,4.2,2.5,6.3c0.5,1,0.9,2.1,1.4,3.1l0.7,1.5l0.6,1.1l50.5,6.4l110.5,14.2c19.1,2.6,38.6,5.1,58.4,8l7.4,1.1l3.7,0.6
			l1.9,0.4c0.6,0.1,1.5,0.4,2.2,0.8c1.4,0.8,2.6,2.3,3.2,3.8c0.6,1.5,0.9,3.1,1,4.7c0.2,3.1-0.1,6-0.6,8.9c-0.5,2.9-1.1,5.7-1.9,8.4
			c-0.4,1.4-0.8,2.7-1.2,4.1c-0.1,0.5-0.6,1.3-0.9,1.6c-0.4,0.4-0.8,0.6-1.1,0.8c-0.7,0.4-1.4,0.6-2.1,0.8c-2.7,0.7-5.3,0.8-7.9,0.9
			c-2.6,0.1-5.2,0-7.7-0.1c-10.3-0.4-20.4-1.5-30.5-2.8c-10-1.2-20-2.7-29.9-4.2c-19.7-3-39.2-6.4-58.2-9.8c-19-3.5-37.7-7-56-10.7
			c-18.3-3.7-36.1-7.2-53.6-11.3l-0.8-0.2l-0.4-0.1c-0.2-0.1-0.5-0.2-0.7-0.3c-0.5-0.4-0.6-0.5-0.8-0.7l-0.6-0.6
			c-0.9-0.8-1.7-1.6-2.5-2.4c-1.7-1.7-3.3-3.4-4.8-5.1c-3.1-3.5-6-7.3-8.6-11.3c-5.1-8-8.9-17.1-10-26.8c-1.2-9.6,0.4-19.4,3.9-27.9
			c3.5-8.5,8.6-15.9,14.7-21.8c3-3,6.3-5.6,9.9-7.6c1.8-1,3.6-1.9,5.6-2.4c2.1-0.6,4-0.6,6-0.6c7.7-0.2,15.1,0.1,22.4,0.3
			c14.6,0.4,28.6,1.1,42,1.7c53.5,2.6,96.9,5.2,126.8,7.1C460.4,660.2,476.9,661.5,476.9,661.7c0,0.2-16.6-0.5-46.5-2
			c-29.9-1.4-73.3-3.7-126.8-6c-13.4-0.5-27.4-1.1-42-1.5c-7.3-0.2-14.8-0.3-22.3-0.2c-1.9,0.1-3.8,0.1-5.4,0.6
			c-1.7,0.5-3.4,1.3-5.1,2.2c-3.3,1.9-6.5,4.4-9.4,7.3c-5.8,5.7-10.7,12.8-14,20.9c-3.3,8.1-4.7,17.3-3.6,26.3
			c1.1,9.1,4.6,17.8,9.6,25.4c2.5,3.9,5.3,7.5,8.3,10.9c1.5,1.7,3.1,3.4,4.7,5c0.8,0.8,1.6,1.6,2.5,2.4l1.1,1c0,0,0,0,0.1,0l0.4,0.1
			l0.8,0.2c17.3,4,35.2,7.6,53.4,11.2c18.2,3.6,36.9,7.1,55.9,10.6c19,3.4,38.4,6.8,58.1,9.8c9.9,1.5,19.8,2.9,29.8,4.2
			c10,1.2,20.1,2.3,30.3,2.7c2.5,0.1,5.1,0.1,7.6,0.1c2.5-0.1,5-0.2,7.3-0.8c0.5-0.1,1.1-0.3,1.5-0.6c0.2-0.1,0.4-0.2,0.5-0.3
			c0.1-0.1,0,0,0.1-0.2c0.4-1.3,0.8-2.7,1.1-4c0.7-2.7,1.3-5.4,1.8-8.1c0.5-2.7,0.7-5.4,0.6-8c-0.1-2.6-0.9-4.9-2.5-5.8
			c-0.4-0.2-0.7-0.4-1.4-0.5l-1.8-0.3l-3.7-0.6l-7.4-1.2c-19.7-2.9-39.2-5.5-58.4-8l-110.4-14.4l-26.1-3.4l-12.8-1.6l-6.3-0.8
			l-3.1-0.4l-1.6-0.2l-1-0.1l-0.7-0.1c-0.1,0-0.2,0-0.3-0.2l-0.2-0.4l-0.6-1.2l-0.4-0.8l-0.8-1.6c-0.5-1.1-1-2.1-1.4-3.2
			c-0.9-2.1-1.8-4.3-2.6-6.5c-1.6-4.4-2.9-8.8-3.7-13.4c-0.8-4.6-1.1-9.3-0.3-14c0.8-4.7,3.1-9.2,6.5-12c3.4-2.9,7.4-4.3,11.4-5.1
			c4-0.6,7.8-0.8,11.6-0.9c7.6-0.1,15.1,0,22.4,0.3c14.6,0.6,28.7,1.4,42,2.3c53.5,3.7,96.7,7.6,126.7,9c3.7,0.2,7.3,0.3,10.6,0.3
			c3.3,0,6.4,0,9.2-0.4c0.7-0.1,1.4-0.2,1.7-0.7c0.5-0.5,0.9-1,1.3-1.6c0.8-1.1,1.5-2.3,2-3.5c1.1-2.4,1.9-4.7,2.4-6.8
			c1.1-4.2,1.4-7.6,1-9.8c-0.2-1.1-0.7-1.8-1.2-1.8C477.1,661.6,476.9,661.8,476.9,661.7L476.9,661.7z"/>
		<path id="path24" class="st0" d="M466.5,664.4c0,0,110.6-68.6,117.8-61.5c7.2,7.1,3.8,21.4-1,25.8c-4.8,4.5-107.9,62.5-112.2,59.5
			C463.8,683.2,466.5,664.4,466.5,664.4L466.5,664.4z"/>
		<path id="path26" class="st0" d="M468.9,763.3c0,0,105-54.4,109.8-47.2c4.8,7.1-0.3,21.9-0.3,21.9s-98.4,55.5-104,55.5
			C468.9,793.5,464.2,763.3,468.9,763.3L468.9,763.3z"/>
		<path id="path28" class="st0" d="M583.5,524.5c0,0,42.2,25.8,15.9,70.4c0,0-117.8,68.3-126.5,68.3c-8.7,0-239.5-4.1-246.6-13
			c-7.2-8.9,4-16.9,4-16.9s217.2,11.6,222.8,8c0,0,14.3-46.4-9.5-57C419.6,573.5,243,586,243,586s-10.3-15.2,4-16
			c3.2-0.2,209.3-11.6,218-11.6C473.7,558.3,581.9,516.4,583.5,524.5L583.5,524.5z"/>
		<path id="path30" class="st0" d="M459.4,487.9c0,0,8.7,20.5-1.6,21.4c-10.3,0.9-185.4,6.2-190.1,15.2c-4.8,8.9-6.4,25.8,3.2,25.8
			c9.5,0,187-13.4,188.6-8c1.6,5.3-0.8,17.8-0.8,17.8s-196.9,16-204.8,10.6c-8-5.3-14.7-42.3-9.9-50.3c4.8-8,60.4-29.8,75.5-27.1
			C334.5,496,459.4,487.9,459.4,487.9L459.4,487.9z"/>
		<path id="path32" class="st0" d="M459.4,487.9c0,0,126.5-35.7,131.3-28.5c4.8,7.1,5.6,10.7-0.8,14.3
			c-6.4,3.6-130.5,39.2-132.1,35.6c-1.6-3.6-4-16,0.8-17.8L459.4,487.9L459.4,487.9z"/>
		<path id="path34" class="st0" d="M455.4,542.3c0,0,140.8-44.6,144-36.5c3.2,8,3.2,15.2-4.8,17.8c-8,2.7-136.8,41.9-140.8,40.1
			C449.8,561.9,455.4,542.3,455.4,542.3L455.4,542.3z"/>
		<path id="path36" class="st0" d="M454.3,403.5c0,0-127.6-1-137,10.4c-9.3,11.5-36.1,71.6-11.9,83.1s145.1,0.4,147.9-3.8
			c2.8-4.2,0-16.7,0-16.7s-118.3,11.5-123.9,4.2c-5.6-7.3-8.4-47,2.8-53.2c11.2-6.3,118.3-2.1,121.1-5.2
			C453.4,422.3,462.7,398.3,454.3,403.5L454.3,403.5z"/>
		<path id="path38" class="st0" d="M454.3,403.5c0,0,111.8-20.9,114.6-12.5c2.8,8.3-5.6,15.7-5.6,15.7S459,423.3,453.4,422.3
			C447.8,421.2,446,402.4,454.3,403.5L454.3,403.5z"/>
		<path id="path40" class="st0" d="M453.4,476.6c0,0,110.9-38.6,114.6-29.2c3.7,9.4,0.9,13.6,0.9,13.6s-109,32.4-115.5,32.4
			C446.9,493.3,453.4,476.6,453.4,476.6L453.4,476.6z"/>
	</g>
	<path id="path58" class="st0" d="M240.7,677.6c0,0-21,20.5,0.5,52.5c43.4,8.4,222.4,33.3,222.4,33.3s-16.9-59.9-1.8-73.2
		c0,0-202.4-25.3-220.1-15C224,685.5,240.7,677.6,240.7,677.6L240.7,677.6z"/>
	<path id="path60" class="st0" d="M477.2,689.5c0,0-6.1,3.9-7.6,12.8c-3.8,23.5,4.8,54.9,4.8,54.9l87.8-39.8c0,0-21-32.6-5.4-72.4
		L477.2,689.5L477.2,689.5z"/>
	<path id="path62" class="st0" d="M470.2,575c0,0,5.9,60.3-9.2,83.9c0,0,132.5-64.6,135.8-69.4c3.2-4.8,14.7-24.8-5.4-43.4
		C579,534.6,470.2,575,470.2,575L470.2,575z"/>
	<path id="path64" class="st0" d="M243.9,573.8c0,0-2.7,8.4,0.5,8.4c3.2,0,131.5-13.9,208.5,0.6c5.7,1.1,9.2-12.7,5.9-12.7
		S284.3,564.2,243.9,573.8L243.9,573.8z"/>
	<path id="path66" class="st0" d="M232.1,637.2c0,0-5.9,6.6-1.1,10.9c4.8,4.2,210.7,13,220.3,10.3c4.3-1.2,0.5-9.7,0.5-9.7
		S249.9,645.6,232.1,637.2L232.1,637.2z"/>
	<path id="path68" class="st0" d="M258.5,588.3c0,0,16.2,30.2-3.2,45.9l199.9,6.6c0,0,11.8-19.3,2.1-45.8
		C449.2,572.8,282.7,585.9,258.5,588.3L258.5,588.3z"/>
	<path id="path70" class="st0" d="M457.5,493.5c0,0,5.2,11.1-0.5,11.1c-5.8,0-187.1,7-194.4,18.1c-7.3,11.1-1,26.9,5.7,33.4
		c6.8,6.4,190.2-7.6,190.2-7.6l-1,14c0,0-193.3,5.3-197.5,4.1c-4.2-1.2-11-34.5-10.4-41c0.5-6.4,31.9-18.1,31.9-18.1L457.5,493.5
		L457.5,493.5z"/>
	<path id="path72" class="st0" d="M463.8,492.9c0,0,0.1,2.3,3.8,2.3s118.1-23.8,118.1-27.3c0-3.5,0.9-4.3,0.9-4.3
		S463.8,491.7,463.8,492.9L463.8,492.9z"/>
	<path id="path74" class="st0" d="M467.6,547.8c0,0-3.5,6,2.8,4.2s123-28.6,125.6-32.7c2.6-4.1-6.5-4-6.5-4S468.1,543.7,467.6,547.8
		L467.6,547.8z"/>
	<path id="path76" class="st0" d="M270.9,531.6c0,0-1.4,14.4,8,17.9c9.4,3.5,178.6-6.2,178.6-6.2s-8.9-24-0.5-31
		c8.4-7,0.8-2.9,0.8-2.9S276.2,522.8,270.9,531.6L270.9,531.6z"/>
	<path id="path78" class="st0" d="M468,509.3c0,0-16.7,10-5.2,31.6l122.3-33.9c0,0-14.6-14-7.8-26.9L468,509.3L468,509.3z"/>
	<path id="path80" class="st0" d="M454.4,481.8c0,0,2.6,8.2-1.1,8.2s-125.4,9.4-134.8,5.3c-9.4-4.1-13.6-16.4-13.1-24.6
		c0.5-8.2,7.8-48.6,15.7-52.7c7.8-4.1,130.6-11.1,130.6-5.9c0,5.3-3.7,6.4-3.7,6.4s-116-1.8-121.8,5.3c-5.7,7-9.9,46.2-2.6,54.4
		s15.7,9.4,15.7,9.4L454.4,481.8L454.4,481.8z"/>
	<path id="path82" class="st0" d="M462.8,479.4c0,0-0.1,3.8,2,3.2c2.1-0.6,99.4-26.3,102-22.5c1.3,1.9-3.7-8.2-3.7-8.2
		S467.5,473.6,462.8,479.4L462.8,479.4z"/>
	<path id="path84" class="st0" d="M459.1,411.5c0,0-0.5,7.6,1,6.4s103.5-12.9,104-14.6c0.5-1.8-0.5-5.3-0.5-5.3
		S460.1,410.4,459.1,411.5L459.1,411.5z"/>
	<path id="path86" class="st0" d="M461.2,426.2c-0.5,1.8-12.5,28.1,0,44.5l92-21.7c0,0-19.5-22.8-9-32.2L461.2,426.2L461.2,426.2z"
		/>
	<path id="path88" class="st0" d="M459.1,424.4c0,0-19.3,28.1,0,50.3c0,0-116.5,11.7-125.9,5.9c-9.4-5.9-11-45.7-3.7-53.8
		L459.1,424.4L459.1,424.4z"/>
	<g>
		<path id="path108" class="st0" d="M439.9,716.6c-0.1,0.5-8.6-2.1-22.4-4.9c-6.9-1.4-15.2-2.7-24.4-3.9c-9.2-1.2-19.4-2.2-30.2-3.1
			c-10.7-0.9-21-1.8-30.3-2.8c-9.3-1-17.7-2.2-24.7-3.4c-14-2.5-22.4-5.2-22.3-5.6c0.1-0.5,8.7,1.4,22.6,3.3c7,1,15.3,1.9,24.6,2.7
			l30.3,2.6c10.7,0.9,21,2,30.3,3.4c9.3,1.3,17.6,3,24.5,4.6C431.7,712.8,440,716.2,439.9,716.6L439.9,716.6z"/>
		<path id="path110" class="st0" d="M444.9,733.6c-0.1,0.5-7.1-1.1-18.5-3.8c-11.3-2.7-26.9-6.5-44.3-10
			c-17.4-3.5-33.2-5.7-44.7-6.8c-11.5-1.2-18.7-1.4-18.7-1.9c0-0.4,7.2-1,18.8-0.5c11.6,0.5,27.6,2.4,45.1,5.9
			c17.4,3.5,33,7.7,44.2,11C438.2,730.8,445,733.1,444.9,733.6L444.9,733.6z"/>
		<path id="path112" class="st0" d="M332,598c0,0.5-3.6,0.9-9.4,1.9c-5.8,1-13.9,2.5-22.9,3.5c-9,1-17.4,1-23.4-0.6
			c-3-0.7-5.3-1.8-6.7-2.8c-1.5-1-2.1-1.8-2-2c0.2-0.4,3.4,1.7,9.1,2.5c5.7,0.9,13.8,0.6,22.7-0.4c8.9-1,17-2.2,23-2.5
			C328.3,597.1,332,597.6,332,598L332,598z"/>
		<path id="path114" class="st0" d="M375.3,617.3c-0.1,0.5-6.1-0.2-15.8-1.2c-9.7-1-23.2-2.3-38.1-2.5c-7.4-0.1-14.5,0-21,0.4
			l-4.7,0.3l-4.4,0.5c-2.9,0.2-5.6,0.4-8.1,0.5c-10,0.3-16-2-15.8-2.4c0.1-0.5,6,0.9,15.7,0c2.4-0.2,5.1-0.5,7.9-0.9l4.4-0.6
			l4.8-0.4c6.5-0.5,13.6-0.8,21.2-0.6c15,0.2,28.6,1.9,38.3,3.5C369.5,615.3,375.4,616.8,375.3,617.3L375.3,617.3z"/>
		<path id="path116" class="st0" d="M442.9,521.2c0.1,0.5-3.2,1.5-8.5,2.7c-5.3,1.3-12.7,2.9-20.9,4.1c-8.2,1.3-15.8,1.9-21.2,1.9
			c-5.5,0-8.8-0.5-8.8-0.9c0-0.5,3.3-0.8,8.7-1.5c5.4-0.6,12.8-1.6,20.9-2.9c8.2-1.3,15.6-2.5,21-3.1
			C439.5,521,442.8,520.8,442.9,521.2L442.9,521.2z"/>
		<path id="path118" class="st0" d="M446.9,437.7c0,0.5-3.5,0.8-9.1,1.4l-22,2.3c-8.6,0.8-16.5,1.2-22.2,1c-5.7-0.2-9.2-0.9-9.2-1.4
			c0-0.5,3.5-0.6,9.2-1c5.6-0.4,13.4-1.1,22-2c8.6-0.8,16.5-1.4,22.2-1.3C443.4,436.7,446.9,437.2,446.9,437.7L446.9,437.7z"/>
		<path id="path120" class="st0" d="M439.9,450.1c0,0.9-6.7,1.7-15,2.4c-8.3,0.7-15.1,0.8-15.2-0.1c-0.1-0.9,6.6-2.5,15-3.2
			C433,448.4,439.9,449.2,439.9,450.1L439.9,450.1z"/>
		<path id="path134" class="st0" d="M505.4,445.6c0.1,1-10,3.1-22.6,4.7s-22.6,3-22.8,2.1c-0.2-0.9,9.8-3.9,22.5-5.5
			C495.1,445.3,505.3,444.7,505.4,445.6L505.4,445.6z"/>
		<path id="path136" class="st0" d="M519.5,683.9c0.2,1-10,4.2-22,10c-11.9,5.8-20.9,12.2-21.4,11.4c-0.5-0.7,7.9-8.6,20.2-14.5
			C508.6,684.9,519.4,683,519.5,683.9z"/>
		<path id="path138" class="st0" d="M503.4,705.3c0.1,0.5-1.7,1.4-4.8,2.7c-3.1,1.3-7.3,2.8-11.9,4.8c-4.5,2-8.4,4.3-11,6.3
			c-2.7,2-4.2,3.5-4.5,3.1c-0.3-0.3,0.7-2.4,3.2-5c2.5-2.6,6.5-5.5,11.2-7.6c4.8-2.1,9.2-3.3,12.4-4
			C501.2,705.1,503.3,704.9,503.4,705.3L503.4,705.3z"/>
		<path id="path140" class="st0" d="M307.8,691.8c0,0-21.2,16.9-25.2,40.7l39.3,7.9c0,0,12.1-38.4,21.2-44.1
			C343.1,696.3,321.9,683.9,307.8,691.8L307.8,691.8z"/>
	</g>
	<path id="path142" class="st0" d="M467.7,668c0,0,3.7,11.4-1.7,13.7c-5.4,2.3-215-21.3-228.3-8.8c0,0-27.5,19,0,63.6l230,34.6
		c0,0,4.1,15.6,1.4,15.6s-238.2-39.6-242.6-41.9c-4.4-2.3-20.4-39.2-15.6-57.1c4.8-17.9,16.6-31.2,22.1-32.4
		C238.3,654.4,467.7,668,467.7,668L467.7,668z"/>
	<path id="path144" class="st0" d="M472.1,770.4c0,0-1.9,14,4,13.4c5.9-0.6,99.1-48.3,100.2-51.3c1.1-3,1.6-12.7,0-11.5
		C574.7,722.2,476.2,762.5,472.1,770.4L472.1,770.4z"/>
	<path id="path146" class="st0" d="M473.4,667.9l5.7,4c0,0,100.4-43.9,103.1-47.5c2.7-3.6,0.5-15.7,0.5-15.7S475,661.9,473.4,667.9
		L473.4,667.9z"/>
	<path id="path158" class="st0" d="M308.8,692.9c0,0-23.2,29.4-18.2,33.9c5.1,4.5,30.3,1.1,30.3,1.1s19.2-29.4,16.1-32.8
		C334,691.8,316.9,689.5,308.8,692.9L308.8,692.9z"/>
	<path id="path160" class="st0" d="M481.5,584.6c0,0,97.3-42.7,101.2-35.4l3.9,7.4c0,0-97.3,47.1-101.2,44.2
		C481.5,597.8,474.9,584.6,481.5,584.6L481.5,584.6z"/>
</g>
<g>
	<path class="st0" d="M963.8,324.6c19.7,33.8,9.2,91.8,8.4,127.9c-0.4,19.2,7.4,71-18.5,76.6c-5.9,3.3-12.9,2.8-19.9,3
		c-13.5,0.4-26.9,0.7-40.3,0.9c-6,42.4-36.7,65.5-78.2,73.2c-44,8.1-109.2,13.5-144.4-22.6c-14-14.3-18.6-32.4-20.5-52.5
		c-3.4-35.5-3.7-74-0.4-109.6c-13.1-6.9-19.7-22.7-19.8-40.4c-0.3-24.5,10-47.6,8.1-72.4c-1.6-21.3-12.8-38.8-17.8-58.6
		c-7.1-10.1-6.9-25.4,0.2-35.7c5.4-7.8,17.2-14.7,27-12.7c-13.5-12.5-4.4-41.6,8.6-51.6c15-11.5,40.4-7.1,46.8,11.3
		c3.1-5.5,10.4-8.1,16.4-5.5c5.3,2.2,9.6,8.1,11.1,14.5c3.1-6.1,9-11.2,14.6-13.3c9-3.4,20.9-0.9,27.7,6.6
		c5.4-20.7,26.7-34.3,46.7-28.8c22,6.1,30.8,27.8,27.8,49.2c4.9-7.1,12.4-12.1,21.2-10.8c6.6,0.9,12.7,6.5,14.2,13.1
		c14.5-11.7,36.2-7.4,44.3,11.3c9.4,21.9-5.4,41-24.5,47.1c10.8,8.1,12.5,27.6,4.8,38.9c-4.2,6.1-10.1,10.1-16.9,11.6
		c0.1,4.2,0.3,8.4,0.4,12.7c22.2-2.2,62.5-9.7,73,16.3C963.8,324.4,963.8,324.5,963.8,324.6z M966.5,420.2
		c0.3-30.2,3.7-63.6-6.6-92.2c-0.3-0.2-0.6-0.5-0.8-0.9c-13.2-20.4-46.6-14.1-68.3-14.5c0.3,10.2,0.7,20.5,1,30.8
		c0.4-0.3,0.9-0.5,1.6-0.6c14.4-0.7,39.5-0.9,42.4,16.7c0.3,0.3,0.5,0.7,0.6,1.2c6.4,37.4,7.6,78.6,0.9,116.2
		c-4.3,23.9-23,22.3-42.3,22.2l-0.1-0.1c-0.1,6.9-0.1,13.7-0.3,20.6c-0.1,2.5-0.3,4.9-0.4,7.3c17.3-0.4,35.4,0.8,52.7-1.5
		c0.3-0.5,0.7-0.8,1.3-0.9C974.2,519.9,966.3,440.8,966.5,420.2z M934.8,444.8c2-26.7,1.5-53-2.6-79.4
		c-3.7-19.3-24.1-15.3-38.7-16.4c-0.6,0-1.1-0.3-1.4-0.5c1.6,49.1,3.3,98.5,3,147.4c12.2-1.9,29.5-1.2,35.9-15.7
		C934.3,472.8,934.1,453.5,934.8,444.8z M895.9,240c15.2-3.9,31.3-15.5,26.6-34.6c-4.7-19.5-25.8-24.3-39.9-13.1
		c-0.2,0.9-0.4,1.9-0.8,2.8c-1.1,2.5-4.7,1.1-4.8-1.4c-0.1-9.2-5.4-16-15-13.9c-8,1.7-12.5,8.9-16.6,15.8c1.8,2.1,3.2,4.7,3.1,7.4
		c-0.1,2.3-2.9,3.9-4.5,2c-2.1-2.4-3.1-5.4-5.5-7.6c-2.5-2.3-5.6-3.5-8.9-3.9c-3.1-0.3-3.1-4.9,0-5.2c3.3-0.3,6.6,0.5,9.4,1.9
		c3.1-20.3,0.8-41.6-21.5-48c-19-5.5-34.6,9.1-41.4,26.6c0.9,2.9-2.2,5.2-4.5,3.1c-7.2-6.7-14.9-12.1-25-8.7
		c-8.3,2.8-12.4,10.5-16.3,18.1c-0.2,0.4-0.6,0.5-1.1,0.5c-0.1,0.3-0.1,0.5-0.3,0.7c-0.9,1.5-3.8,1.6-4.1-0.5
		c-0.9-6.6,1.2-13.1-4-18.5c-5.6-5.8-15.5-3.9-16.3,5.3c-0.1,0.3-0.2,0.4-0.3,0.5c0,0.5,0.1,0.8,0.1,1.3c0.1,2.9-3.8,3.3-4.6,0.7
		c-5.9-18.8-23.4-28.2-40-15.9c-12.7,9.3-19,33.6-6.5,45.8c1.5-3.3,3.9-6,7.4-7.6c2-0.9,3.9,1.4,2.4,3.3c-3.3,4-6.4,7.5-7,13.1
		c-0.6,5.5,1.6,9.9,4.3,14.3c0.8,1.2-0.8,2.9-2,2.1c-5.4-4.1-7.7-11.6-6.9-18.7c-8.9-1.7-19,2.1-24.8,9.3c-8.3,10.2-5.6,23.4,0.3,34
		c0.7,1.3,0.2,2.5-0.6,3.1c7.4,17.9,16.3,33.8,17.7,54.8c2.4,34-30.2,100.5,20.3,111.6c36.1,3.5,18.1-53.4,12.4-69.6
		c-3.1-8.9-6.7-17.7-8-27.2c-2.3-16.1,0.6-31.6,12.3-42.2c-1.4-0.4-2.8-1.1-3.9-1.9c-1.8-1.3-0.3-4.1,1.7-3.1
		c1.8,0.9,3.3,1.1,4.9,0.9c0.1,0,0.3-0.1,0.4-0.1c2.1-0.3,4.2-1.5,6.5-2.7c1.8-1,4.2,1.1,2.9,3.1c-1.6,2.5-4.2,3.8-7,4.1
		c3.1,7.5,10.3,11.3,18.2,8.1c9.4-3.8,11.2-14,11.8-23.5c0.2-2.8,4.1-3.6,4.8-0.7c0.3,1,0.3,2.1,0.4,3.1c3.7,27.8,37.4,39.6,50.3,12
		c1.2-2.5,5.5-1.4,5.2,1.5c-0.1,0.3-0.1,0.6-0.2,1c0.1,0.2,0.3,0.3,0.3,0.6c1.4,16.7,16.3,24.9,29.1,14.3
		c8.4-6.9,11.3-15.8,12.2-26.6c-2.5-0.4-4.7-1.4-6.3-3.2c-0.9-1.1-0.4-3.4,1.3-3.3c2.4,0.3,4.6,1.1,7.1,0.9c2.6-0.1,4.8-1.4,7.2-2.2
		c2.4-0.8,4,2.5,2.4,4.3c-1.3,1.4-3.1,2.3-5.1,2.9c-0.3,9.8,4.1,19.1,12.8,23.5c5.3,2.6,12,3,16.3-1.6c2.5-2.8,3.1-6.5,4.1-10.2
		c-0.2-0.5-0.1-1.1,0.3-1.5c0.1-0.1,0.2-0.1,0.3-0.3c0.2-0.6,0.3-1.2,0.5-1.7c0.8-1.9,3.5-1.4,4.2,0.2c0.8,0.3,1.5,0.5,2.4,1
		c2.1,1.1,3.8,3.6,6,4.9c5,3.1,11.2,4.3,16.8,2.9c8.8-2.1,15.7-10.9,16.1-20.5c0.3-9.5-5.3-14.6-11.3-19.9c-0.9,2.2-2,4.3-3.1,6
		s-4.6,0.7-3.7-1.7c1.3-3.3,2.5-6.5,3-10.1c0.5-3.5,0-7,0.6-10.5c0.3-1.9,3.2-2.3,4-0.5C896,233.6,896.2,236.8,895.9,240z
		 M839.6,591.9c59.8-24.4,48.5-90.3,47.5-145.7c-0.9-50.2-2.3-100.3-2.8-150.4c-4.3-0.1-8.7-1.4-12.5-3.5c-1.8-1-4.6-4.3-7.2-6.5
		c-0.9,12.5-12.5,20.1-24.6,16.3c-7.4-2.3-13.7-8.7-16.8-16.3c-3.5,10.2-11.7,19.1-20.9,22.7c-12.7,5.1-24.5-4.1-27.5-16.5
		c-10.6,20.2-46,12.2-54.7-9.5c-3,7-8.5,12.7-16,14.4c-8.3,1.8-17.4-2.7-20.4-10.7c-26.9,37.2,15.7,73.6,8.5,113.6
		c-2.8,15-12.7,28.7-25.8,24.9c-0.2,0.1-0.3,0.3-0.5,0.3c-4.4,0.1-8.4-0.6-12.1-1.9c2,49.6-13.4,133.7,30.9,164.1
		C724,614.2,797.5,609.1,839.6,591.9z"/>
	<path class="st0" d="M960,328c10.2,28.6,6.9,62,6.6,92.2c-0.2,20.7,7.7,99.7-18.3,104.4c-0.6,0.1-1.1,0.5-1.3,0.9
		c-17.3,2.3-35.4,1.1-52.7,1.5c0.2-2.4,0.4-4.8,0.4-7.3c0.1-6.9,0.2-13.7,0.3-20.6l0.1,0.1c19.3,0.1,38,1.7,42.3-22.2
		c6.7-37.6,5.5-78.8-0.9-116.2c-0.1-0.5-0.3-0.9-0.6-1.2c-2.9-17.6-28-17.4-42.4-16.7c-0.7,0.1-1.2,0.3-1.6,0.6
		c-0.3-10.3-0.7-20.5-1-30.8c21.8,0.4,55.2-5.9,68.3,14.5C959.4,327.4,959.7,327.8,960,328z M955.8,497.8c0.5-2-2.4-3.5-3.2-1.5
		c-2.1,5.1-4.6,9.5-8.8,12.8c-1.5,1.3-0.1,4,1.6,2.8C950.3,508.7,954.3,503.8,955.8,497.8z M947.9,349.3c0.6,1.9,3.5,1.2,2.9-0.8
		c-1.8-7.3-6.2-13.2-12.5-16.9c-1.8-1.1-3.3,1.7-1.6,2.9C941.9,337.8,945.9,343.2,947.9,349.3z M937.3,347c1,1.5,3,0.3,2.3-1.4
		c-2.4-5.3-7.2-10.2-12.7-11.4c-1.4-0.3-2.3,1.7-1,2.6C930.3,339.7,934.1,342.5,937.3,347z"/>
	<path class="st0" d="M952.6,496.3c0.8-2,3.7-0.5,3.2,1.5c-1.5,6-5.5,10.9-10.5,14.1c-1.7,1.2-3.1-1.5-1.6-2.8
		C948,505.8,950.5,501.4,952.6,496.3z"/>
	<path class="st0" d="M950.8,348.5c0.6,2-2.3,2.7-2.9,0.8c-2-6.1-6-11.4-11.2-14.8c-1.8-1.1-0.2-3.9,1.6-2.9
		C944.6,335.2,949,341.1,950.8,348.5z"/>
	<path class="st0" d="M939.6,345.6c0.7,1.7-1.3,2.9-2.3,1.4c-3.2-4.5-7.1-7.3-11.5-10.2c-1.3-0.9-0.4-2.9,1-2.6
		C932.4,335.4,937.2,340.3,939.6,345.6z"/>
	<path class="st0" d="M922.5,205.4c4.7,19.1-11.5,30.7-26.6,34.6c0.4-3.2,0.1-6.3-1.1-9.1c-0.8-1.7-3.7-1.3-4,0.5
		c-0.6,3.5-0.1,7.1-0.6,10.5c-0.5,3.6-1.7,6.9-3,10.1c-0.9,2.4,2.5,3.4,3.7,1.7c1.2-1.7,2.3-3.8,3.1-6c6,5.3,11.6,10.4,11.3,19.9
		c-0.3,9.6-7.3,18.3-16.1,20.5c-5.7,1.4-11.8,0.2-16.8-2.9c-2.1-1.3-3.8-3.7-6-4.9c-0.9-0.5-1.6-0.7-2.4-1c-0.7-1.6-3.4-2.1-4.2-0.2
		c-0.2,0.5-0.3,1.1-0.5,1.7c-0.1,0.1-0.2,0.1-0.3,0.3c-0.4,0.5-0.4,1.1-0.3,1.5c-0.9,3.7-1.6,7.4-4.1,10.2c-4.3,4.6-11,4.2-16.3,1.6
		c-8.8-4.3-13.2-13.7-12.8-23.5c2-0.6,3.8-1.5,5.1-2.9c1.6-1.8,0-5.1-2.4-4.3c-2.5,0.8-4.7,2.1-7.2,2.2c-2.5,0.2-4.7-0.7-7.1-0.9
		c-1.7-0.1-2.3,2.2-1.3,3.3c1.6,1.8,3.8,2.8,6.3,3.2c-0.8,10.7-3.7,19.6-12.2,26.6c-12.8,10.6-27.7,2.3-29.1-14.3
		c-0.1-0.3-0.2-0.4-0.3-0.6c0.1-0.4,0.1-0.7,0.2-1c0.3-2.9-4-4.1-5.2-1.5c-12.9,27.6-46.6,15.8-50.3-12c-0.1-1-0.2-2.1-0.4-3.1
		c-0.7-2.9-4.6-2.1-4.8,0.7c-0.6,9.5-2.5,19.7-11.8,23.5c-7.9,3.2-15.1-0.7-18.2-8.1c2.8-0.3,5.4-1.6,7-4.1c1.3-2-1.1-4.1-2.9-3.1
		c-2.3,1.2-4.3,2.3-6.5,2.7c-0.2,0-0.3,0.1-0.4,0.1c-1.6,0.2-3.1,0-4.9-0.9c-2-1.1-3.5,1.7-1.7,3.1c1.1,0.8,2.5,1.5,3.9,1.9
		c-11.7,10.6-14.6,26.2-12.3,42.2c1.3,9.5,4.9,18.3,8,27.2c5.7,16.2,23.7,73.1-12.4,69.6c-50.5-11.1-17.9-77.6-20.3-111.6
		c-1.4-20.9-10.3-36.9-17.7-54.8c0.8-0.7,1.3-1.9,0.6-3.1c-5.9-10.5-8.6-23.7-0.3-34c5.8-7.1,15.9-11,24.8-9.3
		c-0.8,7.1,1.5,14.6,6.9,18.7c1.1,0.9,2.7-0.9,2-2.1c-2.8-4.5-4.9-8.9-4.3-14.3c0.6-5.5,3.7-9.1,7-13.1c1.5-1.9-0.4-4.1-2.4-3.3
		c-3.5,1.6-5.9,4.3-7.4,7.6c-12.5-12.1-6.2-36.5,6.5-45.8c16.6-12.2,34.1-2.9,40,15.9c0.8,2.6,4.7,2.2,4.6-0.7
		c0-0.5-0.1-0.8-0.1-1.3c0.1-0.1,0.2-0.3,0.3-0.5c0.8-9.1,10.6-11.1,16.3-5.3c5.2,5.3,3.1,11.9,4,18.5c0.3,2.1,3.1,2.1,4.1,0.5
		c0.1-0.2,0.1-0.5,0.3-0.7c0.4,0.1,0.9-0.1,1.1-0.5c3.8-7.6,7.9-15.3,16.3-18.1c10.1-3.3,17.8,2,25,8.7c2.3,2.1,5.4-0.3,4.5-3.1
		c6.8-17.4,22.4-32.1,41.4-26.6c22.3,6.5,24.6,27.7,21.5,48c-2.9-1.5-6.2-2.2-9.4-1.9c-3.1,0.3-3.1,4.9,0,5.2
		c3.3,0.4,6.4,1.6,8.9,3.9c2.4,2.2,3.4,5.2,5.5,7.6c1.6,1.9,4.5,0.3,4.5-2c0.1-2.7-1.3-5.3-3.1-7.4c4-6.9,8.6-14.1,16.6-15.8
		c9.6-2.1,14.9,4.7,15,13.9c0.1,2.5,3.7,3.9,4.8,1.4c0.4-0.9,0.6-1.9,0.8-2.8C896.7,181.1,917.8,185.9,922.5,205.4z M914,217.2
		c5.2-4.7,5-13.1,0.3-18c-1.3-1.3-3.2,0.7-2,2.1c3.3,3.9,2.9,9.9-0.4,13.7C910.7,216.5,912.6,218.5,914,217.2z M886.3,282.7
		c1.6-1,0.5-4.1-1.4-3.4c-4,1.7-8.4,1.7-12.4-0.3c-1.7-0.9-3,1.5-1.5,2.6C875.6,285.1,881.4,285.5,886.3,282.7z M856.9,233.8
		c0.1,2.8,4.2,2.8,4.1,0c-0.1-4.6-2.1-8.5-6.2-10.4c-1.4-0.7-3,1.1-1.7,2.4C855.2,227.9,856.7,230.6,856.9,233.8z M811.1,154.3
		c1.6-0.7,1-3.3-0.8-2.7c-4.8,1.5-8.8,4.1-12.4,7.8c-1.3,1.3,0.6,3.4,2,2.1C803.2,158.3,807,156,811.1,154.3z M800.1,151.7
		c1.4-0.6,0.8-2.9-0.7-2.5c-3.8,1.3-6.9,3.4-9.4,6.7c-1,1.2,0.6,2.9,1.6,1.7C794,155.1,796.9,153.1,800.1,151.7z M799.7,290.4
		c0.9-1.1-0.6-2.7-1.6-1.7c-2.6,2.9-6.7,3.3-9.8,1c-0.9-0.7-2.1,0.9-1.3,1.7C790.9,294.8,796.4,294.6,799.7,290.4z M762,239.3
		c1.3,0.6,2.8-1.2,1.6-2.2c-3.7-3.1-5.8-8-4.5-12.9c0.5-1.8-2-2.5-2.6-0.8C754.4,229.3,756.5,236.3,762,239.3z M758.5,281
		c0.7-0.9-0.4-2.2-1.2-1.3c-3,3.4-7.5,4.7-11.6,2.7c-0.9-0.4-1.7,1-0.8,1.5C749.5,286.4,755.2,285.4,758.5,281z M751.4,230
		c1.8,0.5,2.4-2.2,0.8-2.8c-3-1.2-3.7-5.7-1.3-7.8c1-0.9-0.4-2.9-1.5-2.1C745,220.7,745.9,228.6,751.4,230z M704.5,212.2
		c1.1-0.9-0.3-2.8-1.4-2c-2.6,1.8-4,4.3-4,7.7c0,1.8,2.6,1.8,2.6,0C701.8,215.6,702.8,213.7,704.5,212.2z M692.7,176.3
		c1,1.8,3.5,0.2,2.6-1.7c-2.9-6.1-8.4-10.1-14.9-11.1c-1.8-0.3-2.6,2.7-0.8,3C685.3,167.6,689.9,171.1,692.7,176.3z M691.6,165.2
		c0.8,0.5,1.7-0.7,0.9-1.4c-3.6-3.1-7.8-4.3-12.5-3.9c-0.8,0.1-0.9,1.4,0,1.4C684.2,161.3,688.1,162.8,691.6,165.2z M667.7,401.6
		c1.3-0.5,0.8-2.4-0.6-2.1c-6.6,1.5-13.5-0.7-17.7-6.4c-0.8-1-2.3,0.3-1.6,1.3C652.4,401,660.2,404.4,667.7,401.6z M654,408.4
		c1.2,0.2,1.4-1.9,0.3-2.1c-5.4-1.4-9.4-5.1-10.5-11c-0.3-1.3-2-0.7-1.8,0.5C643,402.3,647.8,407.7,654,408.4z M642.4,218.5
		c0.7-1.1-0.9-2.3-1.7-1.4c-2.5,3.2-4.2,6.7-5.6,10.6c-0.4,1,1.3,1.8,1.7,0.7C638.3,225,640.3,221.6,642.4,218.5z M634.3,218.6
		c0.9-1-0.3-2.7-1.4-1.9c-5.2,3.3-6.8,10.3-4.3,16.1c0.6,1.3,2.5,0.4,2.1-0.9C629.3,226.8,630.8,222.2,634.3,218.6z"/>
	<path class="st0" d="M914.3,199.2c4.8,4.9,5,13.3-0.3,18c-1.4,1.3-3.3-0.7-2.1-2.2c3.3-3.8,3.7-9.9,0.4-13.7
		C911,199.9,912.9,198,914.3,199.2z"/>
	<path class="st0" d="M887.1,446.2c1,55.4,12.3,121.3-47.5,145.7c-42.1,17.1-115.6,22.3-155-4.7c-44.3-30.4-28.9-114.5-30.9-164.1
		c3.7,1.3,7.7,1.9,12.1,1.9c0.2,0,0.3-0.2,0.5-0.3c13,3.8,23-9.9,25.8-24.9c7.2-40-35.4-76.4-8.5-113.6c3,8,12.1,12.5,20.4,10.7
		c7.5-1.7,13-7.4,16-14.4c8.6,21.7,44.1,29.8,54.7,9.5c3,12.5,14.8,21.6,27.5,16.5c9.2-3.7,17.3-12.5,20.9-22.7
		c3.1,7.6,9.4,13.9,16.8,16.3c12.2,3.7,23.7-3.9,24.6-16.3c2.6,2.2,5.5,5.5,7.2,6.5c3.8,2.1,8.2,3.4,12.5,3.5
		C884.8,346,886.2,396.1,887.1,446.2z M882.7,463.9c0.1-3.9,0.1-7.8,0-11.7c-0.1-1.5-2.1-1.5-2.1,0c-0.1,3.9-0.1,7.8,0,11.7
		C880.6,465.4,882.7,465.4,882.7,463.9z M880.1,310.5c0.1-2.1-2.8-2-3.1,0c-0.8,7.1-2,14.5-1.8,21.7c0.1,1.9,2.9,2.5,3.3,0.5
		C879.9,325.4,879.8,317.8,880.1,310.5z M873.9,345.2c1.9-6.5,0.1-14.2-2.5-20.2c-0.5-1.2-2.5-0.3-2,0.9c2.3,6.4,1.8,12.1,1.6,18.8
		C870.9,346.5,873.4,346.8,873.9,345.2z M846.2,531.5c1.2-65.8-4.3-134-12.6-199.3c-0.3-2.1-3.3-2.3-3.2,0
		c2.2,66.1,4.5,133.4,10.4,199.3C841.1,535.1,846.2,535.2,846.2,531.5z M832.8,311.8c0.4-1.5-1.6-2.8-2.6-1.6
		c-3.4,3.8-6.1,6.9-10.8,8.9c-1.9,0.9-0.5,3.8,1.3,3.4C825.9,321.4,831.2,317.3,832.8,311.8z M817.6,318.2c4.5-1.6,8.4-7.1,6.4-12.3
		c-0.6-1.6-3.2-1.7-3.1,0.4c0.1,3.9-0.8,7.3-4.5,8.9C814.8,316,815.9,318.8,817.6,318.2z M820.1,586.1c1.7-1.1,0.2-3.5-1.5-2.7
		c-4.5,2.1-9.1,3.1-13.9,2c-1.6-0.3-2.3,2.1-0.7,2.6C809.5,589.7,815.3,589.3,820.1,586.1z M814.4,577.9c1.5-1.7-0.8-4.2-2.5-2.6
		c-2.2,2.1-4.2,4.4-6.3,6.7c-1.5,1.7,0.8,4.1,2.4,2.5C810.3,582.3,812.4,580.2,814.4,577.9z M814.6,431.4c0.1-1.8-2.8-2.3-3.1-0.4
		c-0.4,3.2-0.6,6.4-0.8,9.6c-0.2,2.2,2.9,2.1,3.1,0C814.2,437.5,814.5,434.5,814.6,431.4z M778.5,551.4
		c2.8-72.8,2.6-146.4,2.3-219.3c0-2.1-3-2.1-3.1,0c-5.4,72.4-7.7,146.8-4.3,219.3C773.6,554.9,778.4,554.9,778.5,551.4z
		 M718.7,548.1c5.7-74.4,6.4-153.5-2.3-227.6c-0.2-1.7-2.5-1.7-2.5,0c-0.6,75.8,1,151.7,0.2,227.6
		C714,551.2,718.4,551.2,718.7,548.1z M704,311.6c1.5-0.6,0.9-2.9-0.7-2.5c-3.8,0.7-7.6,1.5-11.5,1.7c-1.6,0.1-1.6,2.7,0,2.7
		C696.1,313.8,700,313.4,704,311.6z M702,304.3c1.2-0.7,0.4-2.7-0.9-2.3c-4,1-7.8,0.6-11-2.2c-1.1-0.9-2.5,0.5-1.6,1.7
		C691.8,305.8,697.6,307.2,702,304.3z M681.7,430.7c1.3-1.5-0.8-3.7-2.1-2.2c-2.5,2.6-6,3.6-9.3,2c-1.4-0.7-2.6,1.3-1.2,2.2
		C673.2,435.2,678.5,434.6,681.7,430.7z M678.2,558.7c1.4,0.5,2.5-2,1.1-2.7c-3.9-1.9-6.5-5.8-6.4-10.3c0.1-2.1-2.8-2-3,0
		C669.5,551.7,672.7,556.8,678.2,558.7z M670.7,559.4c1.5,0.8,2.8-1.5,1.3-2.4c-5.4-3.6-8-10.5-6.2-16.9c0.4-1.3-1.3-1.7-1.7-0.5
		C661.2,546.9,664,555.6,670.7,559.4z"/>
	<path class="st0" d="M885,279.3c1.9-0.7,3,2.4,1.4,3.4c-5,2.8-10.7,2.5-15.3-1.1c-1.4-1.1-0.2-3.5,1.5-2.6
		C876.5,280.9,880.9,280.9,885,279.3z"/>
	<path class="st0" d="M882.7,452.3c0.1,3.9,0.1,7.8,0,11.7c0,1.5-2.1,1.5-2.1,0c-0.1-3.9-0.1-7.8,0-11.7
		C880.6,450.8,882.6,450.8,882.7,452.3z"/>
	<path class="st0" d="M877,310.5c0.3-2,3.1-2.1,3.1,0c-0.3,7.3-0.3,14.9-1.6,22.1c-0.4,2-3.2,1.5-3.3-0.5
		C875,325,876.2,317.6,877,310.5z"/>
	<path class="st0" d="M871.4,325c2.5,6,4.3,13.7,2.5,20.2c-0.5,1.6-3,1.3-2.9-0.5c0.3-6.7,0.7-12.4-1.6-18.8
		C869,324.6,870.9,323.8,871.4,325z"/>
	<path class="st0" d="M861,233.8c0.1,2.8-4,2.8-4.1,0c-0.2-3.1-1.7-5.9-3.8-8c-1.3-1.3,0.3-3.1,1.7-2.4
		C858.8,225.3,860.8,229.2,861,233.8z"/>
	<path class="st0" d="M833.6,332.2c8.3,65.2,13.8,133.4,12.6,199.3c-0.1,3.7-5.1,3.6-5.4,0c-5.9-65.8-8.2-133.1-10.4-199.3
		C830.3,330,833.4,330.1,833.6,332.2z"/>
	<path class="st0" d="M830.2,310.2c1.1-1.2,3.1,0.1,2.6,1.6c-1.6,5.5-6.9,9.6-12.1,10.7c-1.8,0.4-3.2-2.5-1.3-3.4
		C824,317,826.8,314,830.2,310.2z"/>
	<path class="st0" d="M823.9,306c2,5.1-1.8,10.7-6.4,12.3c-1.6,0.6-2.8-2.2-1.2-2.9c3.7-1.7,4.6-5,4.5-8.9
		C820.7,304.3,823.3,304.4,823.9,306z"/>
	<path class="st0" d="M818.6,583.4c1.7-0.8,3.2,1.7,1.5,2.7c-4.9,3.2-10.6,3.5-16.1,1.9c-1.6-0.5-0.9-2.9,0.7-2.6
		C809.6,586.5,814.2,585.5,818.6,583.4z"/>
	<path class="st0" d="M812,575.3c1.6-1.6,4,0.9,2.5,2.6c-2,2.3-4.2,4.5-6.4,6.6c-1.6,1.6-3.9-0.9-2.4-2.5
		C807.7,579.7,809.7,577.4,812,575.3z"/>
	<path class="st0" d="M811.5,431c0.3-1.9,3.1-1.4,3.1,0.4c-0.1,3.1-0.4,6.1-0.8,9.2c-0.3,2.1-3.3,2.2-3.1,0
		C810.9,437.4,811.1,434.2,811.5,431z"/>
	<path class="st0" d="M810.4,151.5c1.8-0.5,2.3,2.1,0.8,2.7c-4.1,1.7-7.9,4.1-11.2,7.2c-1.3,1.3-3.3-0.8-2-2.1
		C801.6,155.7,805.6,153,810.4,151.5z"/>
	<path class="st0" d="M799.4,149.3c1.5-0.5,2.1,1.9,0.7,2.5c-3.2,1.3-6.1,3.4-8.4,6c-1.1,1.2-2.6-0.5-1.6-1.7
		C792.5,152.7,795.6,150.5,799.4,149.3z"/>
	<path class="st0" d="M798.1,288.7c1-1.1,2.5,0.5,1.6,1.7c-3.3,4.1-8.8,4.3-12.7,1.1c-0.9-0.8,0.3-2.5,1.3-1.7
		C791.4,292.1,795.4,291.6,798.1,288.7z"/>
	<path class="st0" d="M780.8,332.2c0.3,72.9,0.4,146.5-2.3,219.3c-0.1,3.5-4.9,3.5-5,0c-3.5-72.5-1.1-146.9,4.3-219.3
		C777.9,330.1,780.8,330,780.8,332.2z"/>
	<path class="st0" d="M763.6,237.1c1.2,1-0.4,2.8-1.6,2.2c-5.5-2.9-7.6-9.9-5.5-15.9c0.6-1.7,3.1-1,2.6,0.8
		C757.8,229,759.9,233.9,763.6,237.1z"/>
	<path class="st0" d="M757.3,279.7c0.8-0.9,1.9,0.3,1.2,1.3c-3.3,4.4-8.9,5.4-13.5,2.9c-0.9-0.5-0.1-1.9,0.8-1.5
		C749.8,284.5,754.3,283.1,757.3,279.7z"/>
	<path class="st0" d="M752.1,227.2c1.6,0.6,1,3.3-0.8,2.8c-5.5-1.4-6.4-9.3-2.1-12.7c1.1-0.9,2.5,1.1,1.5,2.1
		C748.4,221.5,749.1,226,752.1,227.2z"/>
	<path class="st0" d="M716.3,320.5c8.8,74.1,8.1,153.2,2.3,227.6c-0.3,3.1-4.7,3.1-4.6,0c0.8-75.9-0.8-151.8-0.2-227.6
		C713.9,318.8,716.1,318.8,716.3,320.5z"/>
	<path class="st0" d="M703.1,210.2c1.1-0.8,2.5,1.1,1.4,2c-1.7,1.5-2.7,3.3-2.8,5.7c0,1.8-2.6,1.8-2.6,0
		C699.1,214.6,700.5,212,703.1,210.2z"/>
	<path class="st0" d="M703.3,309.1c1.6-0.3,2.2,1.9,0.7,2.5c-4,1.7-7.9,2.2-12.2,1.9c-1.6-0.1-1.6-2.6,0-2.7
		C695.7,310.6,699.5,309.8,703.3,309.1z"/>
	<path class="st0" d="M701.1,302c1.3-0.4,2.1,1.5,0.9,2.3c-4.4,2.9-10.2,1.5-13.5-2.8c-0.9-1.1,0.5-2.6,1.6-1.7
		C693.3,302.6,697.1,303,701.1,302z"/>
	<path class="st0" d="M695.4,174.7c0.8,1.9-1.6,3.5-2.6,1.7c-2.8-5.2-7.4-8.7-13-9.8c-1.9-0.3-1.1-3.3,0.8-3
		C686.9,164.5,692.5,168.5,695.4,174.7z"/>
	<path class="st0" d="M692.5,163.8c0.8,0.7-0.2,1.9-0.9,1.4c-3.5-2.4-7.4-3.9-11.5-3.9c-0.9,0-0.8-1.3,0-1.4
		C684.7,159.5,688.9,160.7,692.5,163.8z"/>
	<path class="st0" d="M679.6,428.5c1.4-1.5,3.4,0.7,2.1,2.2c-3.2,3.9-8.5,4.5-12.7,2c-1.4-0.9-0.2-2.9,1.2-2.2
		C673.6,432.1,677.1,431.1,679.6,428.5z"/>
	<path class="st0" d="M679.2,556c1.4,0.7,0.4,3.2-1.1,2.7c-5.4-1.9-8.7-6.9-8.3-13c0.1-2,3-2.1,3,0
		C672.7,550.2,675.3,554.1,679.2,556z"/>
	<path class="st0" d="M672,557c1.4,0.9,0.2,3.2-1.3,2.4c-6.7-3.8-9.5-12.5-6.6-19.9c0.4-1.1,2.1-0.7,1.7,0.5
		C664,546.4,666.7,553.4,672,557z"/>
	<path class="st0" d="M667.1,399.4c1.3-0.3,1.8,1.7,0.6,2.1c-7.5,2.8-15.3-0.5-19.9-7.2c-0.7-1,0.9-2.3,1.6-1.3
		C653.7,398.7,660.5,400.9,667.1,399.4z"/>
	<path class="st0" d="M654.3,406.3c1.1,0.3,0.9,2.3-0.3,2.1c-6.2-0.7-11-6.1-12-12.6c-0.2-1.2,1.6-1.8,1.8-0.5
		C644.9,401.2,649,404.9,654.3,406.3z"/>
	<path class="st0" d="M640.7,217.1c0.8-0.9,2.4,0.3,1.7,1.4c-2.1,3.1-4,6.5-5.6,9.9c-0.4,1.1-2.1,0.3-1.7-0.7
		C636.5,223.8,638.2,220.3,640.7,217.1z"/>
	<path class="st0" d="M632.9,216.7c1.1-0.7,2.4,0.9,1.4,1.9c-3.5,3.5-5,8.2-3.7,13.2c0.4,1.3-1.6,2.2-2.1,0.9
		C626.1,227,627.6,220,632.9,216.7z"/>
</g>
</svg>
