<svg xmlns="http://www.w3.org/2000/svg" viewBox="0 0 350.3 291.97"><defs><style>.cls-1{fill:#fff;}</style></defs><title>Risorsa 2</title><g id="Livello_2" data-name="Livello 2"><g id="Livello_1-2" data-name="Livello 1"><path d="M245.84,160.48l.21,0,.1.7Z"/><path d="M236,158.3c2.42,4.43,6.82-.54,10,2.13v0l-.21,0,.31.67-.1-.7c4.48-.85,9.44.16,13.1-3.21,1.45-3.1-2.77-6.48,1.09-9.68,1.5,3.12,2.8,5.83,3.75,7.79-.12,3.71-3.57,4.52-3.82,7.57,1.46,2.9,5.15,5,4.58,9.54,0,2.73-4,3.59-4.13,7.14,2.84,6.63,5.54,13.73,2.68,21.69-3.95,5.35-9.41,4.38-15.16,3.69-6.92-.83-12.78-5.74-20.39-5.11-.65,3.72-1.26,7.24-1.94,11.14,11.2,14.54,24.14,27.5,40.38,36a382.5,382.5,0,0,0,63,25.78c7.14,2.24,14.64,3.61,20.95,7.48a6.14,6.14,0,0,1,.15.72c-6.78-.59-4.67,6.67-8.92,9.14-1.31.53-.14-2.24-1.45-1.71L338.42,292l-.66-1,.08-.18-.08.18c-.57-.87-1.16-1.75-1.75-2.64-1.91-1.72-4-.08-5.91-.58-1.42-1.45-.33-3.95-2.41-5.47a39.24,39.24,0,0,1-11.23-.64c-4.11-3.23-6.43-7.63-8.36-12.19a101.32,101.32,0,0,0-17.57-6.83c-2.38,1.92.28,4.31-1.94,5.91-2.24-1.31-1.6-4.6-3.92-6.08-2.62,1.39-4,5.78-8.21,3.86-2.38-1.36-1.62-4.83-3.88-6.67l-10.39-4.4c2.79-3.35,5.49,1.78,8.29-1.1-2.6-3-5.39-5.33-10.76-5.44-.17,0,0,3.09-2,1.52-3.7-7.87-12.13-10.95-17.37-17.36.51,4.75,4.34,7.44,7,11.2-3.34.41-6.24-1-8.89,1-2.11,3.8.25,8.13-.89,12.76l-4.84-1c-.72-8-2.59-16-6.38-22.44-6.5-11.12-9-21.91-4.09-34.06.47-1.17-.26-2.79,1.72-4.47,6.57-1.36,13,1.84,19.46,4.26,5.29,2,10.3,2.27,15.35.28a10.27,10.27,0,0,0,3-6.11c.89-6.93-5-12.39-4.67-19,.39-1.45,1.45-1.92,2.42-2.48s1.72-1.4,1-2.7c-12.25.43-12.25.43-26.28-6.24C232.85,161.73,233.66,160.14,236,158.3Z"/><path d="M301.38,2c-16.08,11.8-33.39,13.39-51.6,9.69-9.66-2-19.35-3.15-29.26-1.4-3.86-4.51-8.6-7.45-13.08-10.21-6.85-.91-10.91,7.07-17.13,4.49C185.74,6,184,10,181,12.2c-4.42.09-6.78-4.33-10.93-4.37-6.47.3-10.91,3.8-13.83,9.32-10.45.89-15.08,8-17.95,15.87-24.1,9.72-41.06,25.76-53,47.92-13.86,25.69-24.11,53.2-39.78,78a6.4,6.4,0,0,0-.46,2.29c1.55,3.1,4.36,3.82,7.17,3.81,11.84,0,22.37,5,33.16,8.71a224.37,224.37,0,0,0,49.12,10.92,7.6,7.6,0,0,0,2-.46c1.48-7.75,3.57-15.33.72-23.65s-.81-16.55,3.72-23.86c-4.11-5.18-10.78-8.11-9.19-16.33,1.76-4.8,7.58-7.18,10.09-12.14-.62-2.23-2.53-.3-4.1-1.78-3.34-6.11-.16-11,4.58-15.44,5.59,2.3,7.21,1.72,11.33-4.49-3.5-6.08-13-9.51-10.34-19.19,3.27-3.05,8.21-2.92,11.88-5.44-3.11-5.73-4.65-6.42-9.55-4.25-1.78.79-3.37,2.13-5.21,2.6-1.55.4-3.32-.08-4.84-.17-3.7,2.34-7,5-10.82,6.73-15.54,7-22.88,21.1-29.72,35.17-7.23,14.86-12.85,30.47-20.14,45.36-2.7,5.53-6.12,10.45-8.67,15.81-5.59,1-10.33-.39-15.27-2.63.24-4.38,2.34-8.17,4.36-11.65C67,128.65,74.94,106.65,86.31,86.29c9.32-16.71,20.3-31.55,36.75-41.88,5-3.16,10.17-5.81,15.9-6.37,4.22-8.5,8.61-16.28,18.62-17.68,4.2-3.38,6.34-9.4,12.94-8.63,3.07.17,4.66,2.94,7.13,4.11,5.61-.94,5.61-.94,13-7.6,5.17,1.65,9.09-2.15,13.48-4.35,6.25,1.77,11.57,4.58,15,10.63,13.52-3.17,26.4.88,39.46,2,13.53,1.17,26.2-1.52,39.06-7.28,1.49,5.39-.51,9.82-.57,14.78-21.55,15.62-45.29,11-69.84,8.68a14.7,14.7,0,0,0-2,1c-.95.58-1.81,1.31-2.95,2.16.8,6.94,10.13,8.93,9.27,17.25-.86,1.16-2.88,2-4.9,2.36-3.33-.19-5.38-4.9-9.36-2.21-.91,4.32,3.78,6.94,3.11,11.39-2,2.88-4.85,4.85-7.41,5.11-5.46.24-8.52-4.26-13.59-2.89,1,5.08,6,7.82,5.53,13.38,12.13-1.79,23.29.61,34.46,2.92,9.39,2,15,8.08,18.71,16.54,1.23,2.84.11,4.75-2.16,7.36-2.16-3.39-3.58-6.87-8.33-9.28-8.21.66-17.7-5.22-27.46-1.94l0,1.84,6.71-.86c2.66.54,3.29,2.85,5.26,3.85,9.19-.12,15.66,4.93,22.06,11.33,6.82,6.82,10.66,15.43,16.5,21.62-.63,3.62-2.39,4.38-4.71,5.18-4.62-2.48-9.64-5.08-15.4,2.14,7.63-1.38,13.21,3.66,19.76.39,2.64-2.43,4.45-5.41,3.63-10-6.41-5.84-10.78-13.63-15.72-22.46,9.47-9.15,20.39-17.42,26.91-29.22s11.77-24.32,13.2-37.89C299.71,28.77,305.89,16,301.38,2Z"/><path d="M118.93,254.22c-2.89,0-4.76,3.5-7.91,1.76.77-2.25,4.4-2.82,3.44-5.9a26.65,26.65,0,0,0,14.44-11.34c-.29-1.21-.6-2.47-.92-3.79,6.22-3,13.32-4.94,14.21-13.11-2-2.44-5.53.07-6.92-3.06,2.88-2.37,7.09-1.95,9.89-4.84,5.51-9.05,5.51-9.05,4.89-14.62-7.87,2.34-7.87,2.34-10.33-1,4.79-.23,8.91-1.41,11.83-5.28s1.89-9,4.77-13.37c1.37,6.65,1.37,6.65-2.72,18.41,7,15,21,23.06,35.05,30.91l9.42-.43c-3.21,5.54-7.81,3.81-11.63,4.35-4.59-5.81-11.91-7.29-17.23-11.84-5.14-4.4-9.06-10.42-15.55-13.15-5.19,6.65-9.4,13.16-11.39,20.91a9,9,0,0,1-2.59,4.25c-3.89,3.45-5.17,8-6.32,12.61a64.71,64.71,0,0,1-14.66,10.1C118.77,255.28,118.85,254.75,118.93,254.22Z"/><path d="M136.81,188.83c-4.58,9.93-15.41,16.12-15.23,28.43-8.51,4.43-11.57,12.79-15,20.19-5.52,2.52-10.38,4.74-13.47,9.59-7.65-.54-13.83,2.4-19.09,7.75-6.55-2.8-12.28-.83-17.82,2.37-7.6-4.59-18.82,3.83-23.92-7.68a20.56,20.56,0,0,0-2.77,1c-.45.24-.73.8-1.7,1.91,3.73.91,5.26,4,7,6.52,6.84.62,13.68-1.38,19.87,2.48,5.37-1.07,10-5.32,16.85-3.66,1.15.22-.06,3.14,2.6,3.59,3.32-4.43,6.8-9.29,12.5-9.83,3.2-.64,4.6,1.84,6.65,2.21,5.34-7.95,5.34-7.95,11.26-10.57,1.64.88-.59,2.72,1.22,3.83,6.41-7.93,6-20.62,17.28-25.11,2.81-7.33,4.07-15.38,10.85-20.93,2.24,1.23-.64,5.23,3.45,5.8C138.14,200.79,136.27,194.88,136.81,188.83Z"/><path d="M9.79,250.77a3.87,3.87,0,0,0,2.76-2.2c-1.57-5.84-6.73-10.43-8.12-17.73,3.47,1.4,3,4.78,5.49,6.25,2.13-1.35-.78-4.39,2.34-5.84,5,3.37,4.13,11.59,10.66,14.75,7.38-2.34,1.6-13.2,9.46-15.94,3.6,1.14,5.76,5.2,9.29,5.07a9.63,9.63,0,0,1,2.21,6.74c-.71,3.39-4.07,3.3-4.53,6.34,4.6.31,7.35-1.59,8.35-5.47,1-4.05.24-8.29-3.43-10.47-4.07-2.44-8-4.88-11-9-7.9,3.85-9,10.64-10,18.39-5.4-6.08-6.22-13.37-8.41-19.78-6.09-1.36-9.24,4.52-14.88,4.21.52,6.48,3,11.72,6.06,16.65,1.64,2.62,3.6,5,3.8,8.24Z"/><path d="M187.08,126.34a3.17,3.17,0,0,1,1.36,4c-.6,2.53-4.57,2.15-5.8,4.67,1.05,2.73,3,2.73,4.77,1.56,3.94-2.58,7.33-6.43,6.28-11-1.56-6.88,1.14-12.2,3.88-17.82a16.64,16.64,0,0,0,.88-3c-1.36-3.42-1.62-7.63-6.58-7.13-2.78.89.53,6.75-4.51,4.9-1,2.5,1.56,3.8,1.16,5.82-1.18,2.52-3.59-.25-5,1.12.43,3,3.39,3.31,4.8,4.16,2.23,5.1-1.12,8.8-1.18,12.91Z"/><path d="M73.14,280.7Z"/><path d="M57.28,274.57c1.75.75,2.29,3.57,4.72,3.94,4.19,1,7.66-1.1,11.73-2.92,6.68,8.33,11.8-.12,18.07-1.61-1.44,1.08-6.49,4.36-12.57,8.39A15.52,15.52,0,0,1,73.88,281l-.71-.3h0l1-.49c-7,.36-14,4.26-18.44-1.73-12.58-.3-22.21-6.25-32.39-10.36-1.75-.7-3.17-2.35-1.76-5.79C32.8,268.14,43.69,275.09,57.28,274.57Z"/><path d="M187.11,126.52l-2.06-5.32c-3-1.29-3.93,4.7-6.93,1.58-2,1.92-1.31,4.39-1.84,6.41-2.53.37-5.42-1.06-6.59,2.14.76,3,4.74-.2,5.33,3.57.16,1.81-2.55,2.17-3.36,4.17,0,2.21,0,4.64,2.11,6.29,3-.83.32-4.59,3.52-5.46,1.74,5.47-2.14,9.39-3.54,13.89l-.05-.18,5,1.51c1.93-6.52,3.9-12.64,1-18.44.73-5.22,4.85-7.2,7.46-10.34Z"/><path d="M196.3,242.23c.06,3.15,2.69,5.41,1.47,8.8-6.18-.92-12.26-1.43-15.23-8.22a9.46,9.46,0,0,0-2.82,5.51,10.6,10.6,0,0,0,3.72,6.8c6.1,1.23,12.4,2.13,18.59-2.36.55-2.11,1.19-4.51,1.84-7C201.83,243.64,201.19,239.55,196.3,242.23Z"/><path d="M218.68,113.57c3.76,4.73,3.76,4.73,21.44,9.89-.33-4.1,2.59-8.5-1.28-11.39-.74-2.52,2.33-3.13.92-5.69l-11.89-1.85c1.71,3.85,7.33,2.54,6.51,7.78C230.41,117.76,224.32,113.37,218.68,113.57Z"/><path d="M9.86,251c-7.48-.09-7.55,0-9.42,7,.1,3,4,3.09,4.3,5.31,1.63,4.55.29,9.65,4.61,12.65,8.15-.92,8.85-1.91,8.44-12.09-2.82,1.78-1.7,6.71-5.77,7.45-3.08-1.48-.87-3.28-.38-5.4a19.46,19.46,0,0,1-6.93-9.5l5.08-5.62Z"/><path d="M171.47,78.44c-1.52-3.73-3.4-4.76-6.87-3.26-.42,3.72-2.65,6.91-5.74,10.16,3.54-1.21,5.58,1.85,8.71,2.32Z"/><path d="M173.75,153.79c-2.26-2-4.87-3.58-6.7-6.19s-4.34-4.83-9.05-4.58c2.43,3.65,7,3.87,7.92,8.39-1.36,1.19-3.3-1.24-5,0-.17,3,2.84,3.53,4.26,5.24,3.28,0,6.16-.76,8.5-3Z"/><path d="M183.9,77.49c-2.43,4.05-1.22,7.32-3.2,9.59,2.88,3.49,5.53,3.44,9,1.21C188.13,84.83,188.07,80.66,183.9,77.49Z"/><path class="cls-1" d="M246,160.43l-4.71,3.18c5,2.8,9.26,5.55,14.79,2-1.62-5.83-7.46-2.48-10.28-5.16Z"/><path class="cls-1" d="M249,74.62c3.53,1.26,4-1.45,5.15-3.18,4.17-.35,7.42,3.6,11.32,2.81,2.69-3.56-3.14-3.91-1.23-7.44,1.88-1.06,6.36.69,7-3.8-.52-4.46-6.72-1-7.27-5.21-1.57-3.27,4.36-2.79,2.85-6-2-2.23-3.3,1.65-5.47.38l-3.05-2.82c-4.52,7.41-7.18-1.91-10.89-1.46-2.28,2-.89,3.88-.77,5.56,1.1,1.66,3.49.2,4.34,2,.71,2.2-2,2.54-2.28,4.62C249.59,64.68,251.05,69.67,249,74.62Z"/><path class="cls-1" d="M105.72,161.78c3.6,1.46,6.23-1.44,8.28-2.05,4.61.53,2.21,5.81,6.55,6.07,1.8-2.91,3.79-6.1,5.81-9.36-.82-3-4.89-2.4-4.92-5.95-1.88,1.79-.57,4.13-3.55,5.2.47-7.79-5.92-8.72-11.14-11.43l-7.13,3.45c0,3.06-.08,5.78-.11,8.19,2.48,3.38,5.48-1.52,7.71.9C109.13,159.27,104.74,159.69,105.72,161.78Z"/><path class="cls-1" d="M97.21,128.37c3.72,4.65,8.73,6.28,6.84,11.53,6,.94,10.24,5.46,16.39,5.18,1.1-2.26,2.28-4.72,3.32-6.86-.21-2.17-1-3.57-2.25-4.39-4.24-.5-4.84,3.35-7.09,5.51C108.6,137,105.57,130.11,97.21,128.37Z"/><path class="cls-1" d="M117.76,116.28c-4.16,0-5.82,4-9.26,4.27a14.08,14.08,0,0,1-3.31-.54l-2.25,4.67,4.49,4.51c1.79-.27,3.51-.07,4.91-1.35,1-1.9-3.4-4.62,1-6.22,3.49.4,1.3,7,6.8,5.89C119.33,123.73,118.53,120,117.76,116.28Z"/></g></g></svg>